#!OML:ASF Z:\Project 1\Capture day 1\Session 1\Male1.ASF
:FULLY-SPECIFIED
:DEGREES
1037
root 23.854 16.563 -5.82875 -169.362 35.8043 -181.365
lowerback -0.828579 -2.6053 -0.637976
upperback -0.0469049 -3.45423 2.45957
thorax 0.605666 -1.72222 2.82812
lowerneck -19.3039 -2.38216 -2.59651
upperneck 6.10071 -2.69606 2.3055
head 4.98751 -1.17528 0.885951
rclavicle -2.19657e-014 -2.14687e-014
rhumerus 79.7421 -5.65498 -49.6529
rradius 42.7654
rwrist 33.2057
rhand -43.6107 40.7192
rfingers 7.12502
rthumb -16.4464 11.3963
lclavicle -2.19657e-014 -2.14687e-014
lhumerus 89.9091 -0.299285 51.631
lradius 24.3525
lwrist -40.8032
lhand -40.8993 73.8822
lfingers 7.12502
lthumb -13.8346 256.598
rfemur -21.46 -1.91952 20.2982
rtibia 21.6321
rfoot -9.29461 -8.22443
rtoes 0.237828
lfemur 12.7093 -0.453674 -14.8823
ltibia 6.83672
lfoot 12.1624 -1.899
ltoes 40.9433
1038
root 23.8507 16.5637 -5.8196 -169.386 35.599 -181.167
lowerback -0.716991 -2.80759 -0.632471
upperback 0.0370682 -3.72326 2.56794
thorax 0.650871 -1.85725 2.93454
lowerneck -18.1075 -2.19044 -2.41022
upperneck 5.68064 -2.52741 2.39358
head 4.6652 -1.09586 0.909757
rclavicle 2.01766e-014 8.74653e-015
rhumerus 79.9003 -5.85953 -50.3052
rradius 44.6075
rwrist 33.6817
rhand -44.9264 40.9125
rfingers 7.12502
rthumb -17.7128 11.6993
lclavicle 2.01766e-014 8.74653e-015
lhumerus 90.0277 -0.0714641 52.4062
lradius 23.7078
lwrist -41.5226
lhand -40.9642 74.2622
lfingers 7.12502
lthumb -13.8971 256.222
rfemur -21.3228 -2.10403 20.5115
rtibia 21.6421
rfoot -9.40008 -8.16235
rtoes 1.2121
lfemur 12.6552 -0.661733 -14.6388
ltibia 7.18994
lfoot 12.0745 -1.81758
ltoes 41.675
1039
root 23.8432 16.5643 -5.81229 -169.539 35.4506 -181.339
lowerback -0.743847 -2.85097 -0.802
upperback 0.173529 -3.78313 2.57664
thorax 0.820871 -1.891 3.0312
lowerneck -17.7321 -2.19343 -2.71325
upperneck 6.08444 -2.48433 2.27732
head 4.73425 -1.10058 0.926139
rclavicle -1.10226e-013 -2.46493e-014
rhumerus 79.936 -6.51362 -50.8196
rradius 46.4045
rwrist 34.093
rhand -46.3342 40.6991
rfingers 7.12502
rthumb -19.0671 11.6137
lclavicle -1.10226e-013 -2.46493e-014
lhumerus 90.3547 0.084833 52.6192
lradius 23.3001
lwrist -41.265
lhand -41.0496 75.5563
lfingers 7.12502
lthumb -13.9795 254.934
rfemur -21.3119 -2.29503 20.3706
rtibia 21.7038
rfoot -8.98448 -8.2217
rtoes -4.20722
lfemur 12.557 -0.848463 -14.7651
ltibia 7.38249
lfoot 12.0886 -1.67635
ltoes 42.2578
1040
root 23.8375 16.5642 -5.80585 -169.734 35.331 -181.693
lowerback -0.857676 -2.89415 -1.1657
upperback 0.344557 -3.84235 2.56815
thorax 1.08717 -1.92804 3.21265
lowerneck -17.0547 -2.27218 -2.89604
upperneck 5.8518 -2.57173 2.29671
head 4.5602 -1.15402 0.959041
rclavicle -7.05686e-014 -4.53229e-014
rhumerus 80.0269 -7.20034 -51.1213
rradius 48.3301
rwrist 34.4114
rhand -47.5451 40.8535
rfingers 7.12502
rthumb -20.2313 11.8871
lclavicle -7.05686e-014 -4.53229e-014
lhumerus 90.4701 0.492214 51.8949
lradius 23.2873
lwrist -40.2654
lhand -41.0524 77.0418
lfingers 7.12502
lthumb -13.9821 253.448
rfemur -21.3952 -2.51216 20.088
rtibia 21.8116
rfoot -9.23705 -8.22233
rtoes -0.587544
lfemur 12.4621 -1.02138 -15.0724
ltibia 7.40775
lfoot 12.1314 -1.79092
ltoes 42.052
1041
root 23.8364 16.5629 -5.79714 -169.898 35.2774 -181.997
lowerback -0.912903 -2.93229 -1.57879
upperback 0.463715 -3.89178 2.5872
thorax 1.27292 -1.96033 3.45509
lowerneck -16.3426 -2.2964 -2.9425
upperneck 5.71245 -2.61186 2.20721
head 4.4053 -1.18916 0.940822
rclavicle 3.35946e-014 -3.97569e-015
rhumerus 80.1799 -7.78272 -51.4986
rradius 50.3047
rwrist 34.775
rhand -48.7812 41.2183
rfingers 7.12502
rthumb -21.4189 12.3823
lclavicle 3.35946e-014 -3.97569e-015
lhumerus 90.4156 0.891519 51.2462
lradius 23.4433
lwrist -39.2544
lhand -41.2724 77.597
lfingers 7.12502
lthumb -14.1941 252.908
rfemur -21.4749 -2.48415 19.8229
rtibia 21.902
rfoot -9.20765 -8.39076
rtoes -2.37469
lfemur 12.3847 -1.12677 -15.3255
ltibia 7.4252
lfoot 12.0892 -2.05693
ltoes 41.367
1042
root 23.834 16.5635 -5.78652 -169.966 35.1739 -182.141
lowerback -0.874026 -2.98775 -1.7942
upperback 0.56655 -3.96508 2.6016
thorax 1.37805 -2.00189 3.58719
lowerneck -15.8817 -2.38552 -3.2888
upperneck 5.80073 -2.71803 2.54688
head 4.37285 -1.23503 1.09597
rclavicle -2.82274e-014 -5.56597e-014
rhumerus 80.499 -8.2828 -52.3622
rradius 52.0831
rwrist 35.5427
rhand -50.269 41.0562
rfingers 7.12502
rthumb -22.8473 12.3895
lclavicle -2.82274e-014 -5.56597e-014
lhumerus 90.5596 1.14347 51.404
lradius 23.4557
lwrist -38.9539
lhand -41.2567 77.583
lfingers 7.12502
lthumb -14.179 252.921
rfemur -21.5177 -2.37282 19.6767
rtibia 21.9017
rfoot -9.06835 -8.56002
rtoes 0.742867
lfemur 12.2001 -1.26208 -15.421
ltibia 7.60912
lfoot 11.9514 -2.22522
ltoes 40.7004
1043
root 23.8279 16.5653 -5.77641 -169.924 34.9149 -182.037
lowerback -0.732071 -3.06296 -1.67803
upperback 0.7063 -4.06668 2.66416
thorax 1.44642 -2.05322 3.58723
lowerneck -15.4166 -2.40391 -3.29423
upperneck 5.59167 -2.77208 2.71871
head 4.23899 -1.2554 1.15029
rclavicle 4.27387e-014 7.95139e-014
rhumerus 80.8574 -8.80637 -53.0937
rradius 53.9147
rwrist 36.2064
rhand -51.6199 41.1838
rfingers 7.12502
rthumb -24.1431 12.6831
lclavicle 4.27387e-014 7.95139e-014
lhumerus 90.6327 1.46124 51.1094
lradius 23.6271
lwrist -38.5108
lhand -41.1011 77.9449
lfingers 7.12502
lthumb -14.0291 252.549
rfemur -21.4768 -2.54723 19.7944
rtibia 21.8244
rfoot -8.96781 -8.6195
rtoes -2.62035
lfemur 11.9961 -1.52182 -15.2686
ltibia 7.85952
lfoot 11.8096 -2.19434
ltoes 40.5343
1044
root 23.8267 16.5652 -5.76537 -169.845 34.6529 -181.742
lowerback -0.517013 -3.08973 -1.43539
upperback 0.8687 -4.10269 2.77154
thorax 1.48635 -2.06911 3.56838
lowerneck -14.9171 -2.43074 -3.62751
upperneck 5.17906 -2.77841 3.01434
head 4.04199 -1.25166 1.30037
rclavicle -4.33351e-014 -4.45278e-014
rhumerus 81.1171 -9.44553 -53.4657
rradius 55.9503
rwrist 36.4387
rhand -52.6651 41.7324
rfingers 7.12502
rthumb -25.1449 13.3684
lclavicle -4.33351e-014 -4.45278e-014
lhumerus 91.0543 1.27277 52.6934
lradius 23.3208
lwrist -40.0565
lhand -40.2187 79.1867
lfingers 7.12502
lthumb -13.1786 251.25
rfemur -21.3456 -2.62421 20.0779
rtibia 21.7491
rfoot -8.9481 -8.68143
rtoes -0.011938
lfemur 11.9435 -1.77264 -14.9135
ltibia 8.02667
lfoot 11.6791 -2.01625
ltoes 41.1992
1045
root 23.8316 16.5641 -5.75314 -169.819 34.4656 -181.563
lowerback -0.332375 -3.1059 -1.31682
upperback 0.987695 -4.12406 2.78965
thorax 1.49963 -2.07872 3.52708
lowerneck -14.2821 -2.41057 -3.72752
upperneck 4.68871 -2.75445 3.12907
head 3.79307 -1.24021 1.36064
rclavicle -4.19436e-014 -1.11319e-014
rhumerus 81.2868 -10.0432 -53.8733
rradius 58.0865
rwrist 36.3991
rhand -53.5188 42.4371
rfingers 7.12502
rthumb -25.9627 14.1904
lclavicle -4.19436e-014 -1.11319e-014
lhumerus 91.4522 0.984046 54.1069
lradius 22.9671
lwrist -41.723
lhand -40.9806 78.5513
lfingers 7.12502
lthumb -13.9129 251.934
rfemur -21.2536 -2.44547 20.227
rtibia 21.6909
rfoot -8.92567 -8.87591
rtoes -0.910268
lfemur 11.9363 -1.96872 -14.6513
ltibia 8.11407
lfoot 11.5491 -1.92551
ltoes 41.8794
1046
root 23.8327 16.563 -5.74249 -169.863 34.344 -181.756
lowerback -0.282502 -3.13468 -1.39911
upperback 1.03357 -4.16406 2.66035
thorax 1.5178 -2.10085 3.4402
lowerneck -13.5114 -2.3991 -3.66131
upperneck 3.8841 -2.76634 3.11988
head 3.82209 -1.26061 1.50246
rclavicle -9.323e-014 -2.22639e-014
rhumerus 81.51 -10.5179 -54.4775
rradius 59.9725
rwrist 36.5903
rhand -54.2553 42.7812
rfingers 7.12502
rthumb -26.6677 14.6398
lclavicle -9.323e-014 -2.22639e-014
lhumerus 91.8539 0.727531 55.2528
lradius 22.5405
lwrist -43.2537
lhand -41.5279 77.5766
lfingers 7.12502
lthumb -14.4403 252.946
rfemur -21.3253 -2.47437 20.0819
rtibia 21.606
rfoot -8.78612 -8.9242
rtoes 1.06197
lfemur 11.787 -2.12555 -14.7766
ltibia 8.1833
lfoot 11.409 -1.86606
ltoes 42.1571
1047
root 23.8313 16.5626 -5.73283 -169.822 34.3472 -181.784
lowerback -0.21579 -3.13409 -1.38748
upperback 1.10156 -4.16362 2.6211
thorax 1.54643 -2.10117 3.39495
lowerneck -13.1201 -2.24852 -3.27067
upperneck 3.48333 -2.6177 2.93334
head 3.58376 -1.19007 1.37881
rclavicle -1.90833e-014 3.18055e-015
rhumerus 81.8982 -10.822 -55.0946
rradius 61.5862
rwrist 36.7148
rhand -54.9415 43.6819
rfingers 7.12502
rthumb -27.3242 15.6422
lclavicle -1.90833e-014 3.18055e-015
lhumerus 92.1133 0.713389 55.7796
lradius 22.3279
lwrist -44.0924
lhand -42.2191 75.2967
lfingers 7.12502
lthumb -15.1062 255.275
rfemur -21.4516 -2.53873 20.1071
rtibia 21.6706
rfoot -8.78406 -8.91374
rtoes -0.041514
lfemur 11.8946 -2.14051 -14.7718
ltibia 7.88792
lfoot 11.3594 -1.58658
ltoes 42.7605
1048
root 23.8271 16.5607 -5.72192 -169.619 34.2552 -181.177
lowerback 0.13804 -3.1425 -0.835048
upperback 1.19743 -4.17024 2.74972
thorax 1.41681 -2.09416 3.23675
lowerneck -12.2239 -2.39926 -3.74628
upperneck 2.8336 -2.79037 3.41193
head 3.2114 -1.26744 1.61421
rclavicle 5.08889e-014 -4.21423e-014
rhumerus 82.2559 -11.0509 -55.7923
rradius 63.015
rwrist 36.838
rhand -55.8106 43.6149
rfingers 7.12502
rthumb -28.1552 15.709
lclavicle 5.08889e-014 -4.21423e-014
lhumerus 92.1782 0.827108 55.6788
lradius 22.3796
lwrist -44.3612
lhand -41.8668 75.7749
lfingers 7.12502
lthumb -14.7668 254.771
rfemur -21.3668 -2.64705 20.6988
rtibia 21.7847
rfoot -8.87421 -8.79541
rtoes 1.11652
lfemur 12.3236 -2.18955 -14.1654
ltibia 7.4563
lfoot 11.3203 -1.22297
ltoes 43.742
1049
root 23.8315 16.5573 -5.70736 -169.666 34.1887 -181.576
lowerback 0.170067 -3.15528 -1.19361
upperback 1.15132 -4.18967 2.64403
thorax 1.37078 -2.10909 3.33111
lowerneck -12.1912 -2.37797 -3.5896
upperneck 2.84886 -2.77701 3.24178
head 3.20185 -1.26651 1.52963
rclavicle 2.28602e-014 7.95139e-015
rhumerus 82.5057 -11.3427 -56.4306
rradius 64.1882
rwrist 36.8157
rhand -56.6429 42.9697
rfingers 7.12502
rthumb -28.9505 15.1974
lclavicle 2.28602e-014 7.95139e-015
lhumerus 92.2676 0.778166 55.7169
lradius 22.4036
lwrist -44.8332
lhand -41.5584 76.7801
lfingers 7.12502
lthumb -14.4697 253.744
rfemur -21.6369 -2.65569 20.3626
rtibia 21.8386
rfoot -8.81087 -8.83832
rtoes -1.02264
lfemur 12.2425 -2.30399 -14.5013
ltibia 7.2033
lfoot 11.3044 -0.879829
ltoes 44.3627
1050
root 23.8324 16.5565 -5.69678 -169.635 34.1286 -181.786
lowerback 0.211463 -3.15388 -1.31421
upperback 1.11746 -4.1893 2.55575
thorax 1.31477 -2.11016 3.31118
lowerneck -11.2372 -2.26928 -1.95859
upperneck 2.01895 -2.81979 2.41244
head 2.68016 -1.30583 0.963704
rclavicle 5.56597e-014 3.81667e-014
rhumerus 82.859 -11.593 -57.0271
rradius 64.9059
rwrist 36.8666
rhand -57.2913 42.5553
rfingers 7.12502
rthumb -29.5696 14.8909
lclavicle 5.56597e-014 3.81667e-014
lhumerus 92.423 0.626328 56.221
lradius 22.3261
lwrist -45.7161
lhand -41.5203 77.6391
lfingers 7.12502
lthumb -14.4329 252.883
rfemur -21.8429 -2.80664 20.2248
rtibia 21.8196
rfoot -8.83522 -8.75336
rtoes 1.32102
lfemur 12.0879 -2.38393 -14.7064
ltibia 7.10555
lfoot 11.1803 -0.775605
ltoes 43.9123
1051
root 23.8386 16.5582 -5.68756 -169.512 34.1278 -181.664
lowerback 0.27479 -3.12342 -1.20014
upperback 1.15622 -4.14801 2.54685
thorax 1.30734 -2.08786 3.24157
lowerneck -10.6562 -2.37368 -3.15876
upperneck 1.63198 -2.85064 3.33201
head 2.48951 -1.30466 1.47899
rclavicle 4.07509e-014 -1.59028e-014
rhumerus 83.2395 -11.7308 -57.6569
rradius 65.2846
rwrist 37.1122
rhand -57.6881 42.7877
rfingers 7.12502
rthumb -29.9483 15.1911
lclavicle 4.07509e-014 -1.59028e-014
lhumerus 92.6009 0.505762 56.7048
lradius 22.292
lwrist -46.4999
lhand -41.4502 78.4397
lfingers 7.12502
lthumb -14.3655 252.077
rfemur -21.939 -2.76768 20.3868
rtibia 21.8742
rfoot -8.98689 -8.82496
rtoes 1.6828
lfemur 12.1653 -2.38135 -14.574
ltibia 6.766
lfoot 11.0845 -0.952398
ltoes 42.4045
